<svg xmlns="http://www.w3.org/2000/svg" viewBox="0 0 415.63 412.92"><defs><style>.cls-1{fill:#eb5f0a;}</style></defs><title>Facebook</title><g id="Capa_2" data-name="Capa 2"><g id="Capa_1-2" data-name="Capa 1"><path class="cls-1" d="M204,0h8.52a6.07,6.07,0,0,0,2.2.29A187.73,187.73,0,0,1,248.27,4,205.07,205.07,0,0,1,322.1,34.14a209.4,209.4,0,0,1,70.47,77.94A203.93,203.93,0,0,1,411.87,167a162.52,162.52,0,0,1,3.47,27.71,16.74,16.74,0,0,0,.29,2v22.71a13.84,13.84,0,0,0-.29,2,138.94,138.94,0,0,1-2.07,19.74,202.84,202.84,0,0,1-17,55A209,209,0,0,1,301,393.83a204.34,204.34,0,0,1-57.18,18.79c-3.39.58-3.4.59-3.4-2.86V271.5c0-3.82,0-3.83,3.8-3.83h41.36c3.25,0,3.29-.05,3.79-3.33l8.13-53.09c.48-3.17.48-3.18-2.72-3.18H244.69c-.74,0-1.48,0-2.23,0-1.68-.09-1.94-.36-2-2.07,0-.34,0-.67,0-1q0-18.34,0-36.7a39.26,39.26,0,0,1,1.08-9q4-16.83,20.67-21.41A49.78,49.78,0,0,1,275,136.29c7.63-.07,15.27,0,22.91,0,2.21,0,2.47-.28,2.5-2.45s0-4.32,0-6.48q0-19.58,0-39.13c0-2.56-.11-2.68-2.67-3.06a290,290,0,0,0-45.4-3.59A91.5,91.5,0,0,0,224.24,86a67.14,67.14,0,0,0-27.13,16.46,68.18,68.18,0,0,0-16.18,26.61,97.17,97.17,0,0,0-5,31.69c0,14.6,0,29.2,0,43.79,0,3.45-.06,3.51-3.52,3.51H126.61c-3.35,0-3.39,0-3.39,3.42V264c0,3.66,0,3.68,3.78,3.68h45.61c3.19,0,3.33.14,3.33,3.3q0,69.54,0,139.07c0,3-.21,3.17-3.12,2.66a209.67,209.67,0,0,1-36.75-9.87A207.9,207.9,0,0,1,5.85,255.57,203,203,0,0,1,.67,219.11,21,21,0,0,0,0,213.7V202.34A10.06,10.06,0,0,0,.41,200c.44-5.86.77-11.73,1.48-17.56A207.73,207.73,0,0,1,76.35,47.26,206.5,206.5,0,0,1,201.56.3,7.2,7.2,0,0,0,204,0Z"/></g></g></svg>