<?xml version="1.0" encoding="utf-8"?>
<!-- Generator: Adobe Illustrator 24.0.2, SVG Export Plug-In . SVG Version: 6.00 Build 0)  -->
<svg version="1.1" id="Capa_1" xmlns="http://www.w3.org/2000/svg" xmlns:xlink="http://www.w3.org/1999/xlink" x="0px" y="0px"
	 viewBox="0 0 125.7 102.7" style="enable-background:new 0 0 125.7 102.7;" xml:space="preserve">
<style type="text/css">
	.st0{fill:#FFFFFF;}
	.st1{fill:#0F57C2;}
	.st2{fill:#FF6600;}
</style>
<g>
	<circle class="st0" cx="63.8" cy="54.5" r="78.4"/>
	<g id="Grupo_15" transform="translate(-563.949 -154.5)">
		<g id="Grupo_2" transform="translate(575.654 154.5)">
			<path id="Trazado_1" class="st1" d="M13.1,40.7c-1.6-4.5-5.6-7.1-8.7-6S0,40.4,1.6,44.9s5.6,7.1,8.7,6S14.8,45.2,13.1,40.7z
				 M9.2,46.9C8.9,47,8.7,47,8.4,47c-1.7-0.2-3.1-1.4-3.5-3c-0.8-2.1-0.1-4.4,1.5-5s3.5,0.7,4.3,2.8S10.8,46.3,9.2,46.9L9.2,46.9z"
				/>
			<path id="Trazado_2" class="st1" d="M46.7,60.8c-1.6-4.5-5.6-7.1-8.7-6s-4.4,5.7-2.8,10.2s5.6,7.1,8.7,6S48.3,65.3,46.7,60.8z
				 M42.7,67c-0.3,0.1-0.6,0.2-0.8,0.2c-1.7-0.2-3.1-1.4-3.5-3c-0.8-2.1-0.1-4.4,1.5-5s3.5,0.7,4.3,2.8C45,64.1,44.3,66.4,42.7,67
				L42.7,67z"/>
			<path id="Trazado_3" class="st1" d="M97.2,10.1c-4-4.3-9.6-6.8-15.5-6.9c-0.2,0-0.4,0-0.6,0c-12,0-21.8,9.6-22.1,21.6
				c0,1.2,0.1,2.5,0.3,3.7c1.8,2.6,3.3,5.3,4.5,8.2l8.4,7.2c1.6,1.3,2.8,4.6,2.9,7.9c0,1.6-0.2,3.1-0.7,4.6c2.6,2.9,4.7,4.6,5.8,4.6
				l0,0c1.7,0,7.2-5.2,12.8-12.9c6.3-8.6,10.1-17,10.2-22.2C103.4,20,101.2,14.3,97.2,10.1z M97.3,31.3c-3.3,9-13.2,13.5-22.2,10.2
				S61.6,28.2,64.9,19.3C68.2,10.4,78.1,5.7,87.1,9c0.1,0,0.2,0.1,0.3,0.1C96.1,12.6,100.6,22.4,97.3,31.3L97.3,31.3z"/>
			<path id="Trazado_4" class="st2" d="M71.1,54.9c-0.9,0.1-1.8-0.3-2.4-1c-0.6-1-0.6-2.2-0.1-3.2c0.4-1,1-1.9,1.9-2.6
				c0.4-0.3,1-0.6,1.5-0.7c-0.3-1-0.9-1.9-1.7-2.7l-8.5-7.3c0,0-8.1-20.3-25.5-24.1c-8.5-1.9-18.2,2.5-25.2,8.2h0.1
				c3.1-0.5,8.2-0.2,14.6,3.6c0.4,0.2,0.5,0.6,0.4,1c-0.2,0.4-0.6,0.6-1,0.4h-0.1c-6-3.5-10.7-3.8-13.5-3.4l0,0
				c-2,0.2-3.7,1.1-4.9,2.4c-1.1,1.1-2,2.3-2.9,3.5c-0.7,1-1.3,2.1-1.7,3.3c-0.1,0.3,0,0.7,0.4,0.9c0.2,0.1,0.4,0.1,0.6,0
				c0.2-0.1,0.4-0.2,0.7-0.3c4-1.5,8.8,1.9,10.9,7.4c1,2.6,1.2,5.4,0.5,8.1c-0.3,0.9,0.1,1.8,0.9,2.3l15.3,8.9
				c0.6,0.4,1.4,0.1,1.8-0.5c0.1-0.1,0.1-0.3,0.2-0.4c0.5-2.7,1.9-4.9,4.2-5.7c4-1.5,8.8,1.9,10.9,7.4c0.6,1.6,0.9,3.3,0.9,5.1
				c0,1.2,0.9,2.1,2,2.1c6.8,0.2,13.3-2.3,18.3-6.8c1.7-1.6,2.9-3.7,3.2-6C72.2,54.8,71.7,54.9,71.1,54.9z M18.9,34.5
				c-1.8-1.6-5.5-4.5-7.8-5.2c-0.3-0.1-0.5-0.5-0.4-0.8c0-0.1,0.1-0.2,0.2-0.3c1.6-1.4,5.2-3.5,11-1c0.8,0.3,1.2,1.3,0.8,2.1l-2,4.8
				c-0.2,0.6-0.9,0.8-1.5,0.6C19.1,34.7,19,34.6,18.9,34.5z M35.9,46.9l-10.5-5.8c-0.9-0.5-1.3-1.5-1-2.5l2.1-6.8
				c0.2-0.6,0.9-1,1.5-0.8c0.1,0,0.1,0,0.2,0.1c6.4,3.3,8.8,10.5,9.6,14.4c0.2,0.7-0.3,1.4-1,1.5C36.5,47.1,36.2,47.1,35.9,46.9
				L35.9,46.9z M47,44.9c-0.4,0.2-0.8,0.3-1.3,0.1c-0.4-0.1-0.7-0.4-0.9-0.8c-0.8-1.3-1.6-2.7-2.5-4.1c-1.2-1.8-2.3-3.8-3.3-5.8l0,0
				c-0.2-0.6-0.1-1.3,0.3-1.8c3.2-4.3,9.1-6.4,11.3-6.7c0.9-0.1,1.7,0.2,2.3,0.8c2.5,3,4.6,6.2,6.3,9.7c0.2,0.5,0.1,1.1-0.4,1.4
				L47,44.9z M52.2,57.8c0-2.1,1.7-3.8,3.8-3.8c1.8,0,5.4,1.5,5.4,3.8s-3.5,3.8-5.4,3.8C53.9,61.6,52.2,59.9,52.2,57.8L52.2,57.8z
				 M70.4,57.3c-2.1,3-5.5,4.9-9.1,5c-0.2,0-0.3,0-0.4,0c-0.4,0-0.7-0.4-0.6-0.8c0-0.4,0.4-0.6,0.7-0.6c3.3,0,6.4-1.6,8.2-4.3
				c0.2-0.3,0.6-0.4,0.9-0.2C70.5,56.5,70.6,56.9,70.4,57.3L70.4,57.3L70.4,57.3z"/>
			<path id="Trazado_5" class="st2" d="M94.3,54.4c-0.8-0.4-1.6-0.8-2.4-1.2C88.1,58,83,63.5,80.2,63.5h-0.1c-1.6,0-3.7-1.5-6.4-4.4
				c-0.6,1.1-1.4,2.2-2.3,3c-2.3,2-4.9,3.7-7.8,4.9c0.4,0.2,0.8,0.5,1.2,0.7c4.5,2.4,9.5,3.6,14.5,3.6c0.3,0,0.6,0,0.9,0
				c4.9,0.1,9.7-0.9,14-3.1c3.5-1.8,5.4-4.2,5.4-6.7C99.8,59,97.9,56.5,94.3,54.4z"/>
			<g id="Grupo_1" transform="translate(66.642 8.488)">
				<path id="Trazado_6" class="st1" d="M14.1,19.8c1.1,0,1.7-0.3,1.9-0.9c0.3-0.8,0.4-1.7,0.4-2.6c0-0.8-0.1-1.7-0.3-2.5
					c-0.3-0.6-1-1-1.6-0.9h-0.3c-0.2,0-0.3,0.1-0.3,0.3v6.3C13.8,19.6,13.9,19.8,14.1,19.8z"/>
				<path id="Trazado_7" class="st1" d="M19.4,4.1c-7-2.7-14.8,0.8-17.5,7.8c-2.5,6.4,0.2,13.7,6.3,16.9V8c0-0.2,0.1-0.3,0.3-0.3
					h7.2C17,7.6,18.4,8,19.5,8.8c1,0.8,1.7,1.8,2,3c0.4,1.5,0.6,3.1,0.6,4.6s-0.1,3-0.5,4.5c-0.3,1.2-0.9,2.2-1.8,3
					c-1.1,0.8-2.3,1.1-3.7,1.1h-2c-0.2,0-0.3,0.1-0.3,0.3v5.1c0.2,0,0.5,0,0.7,0c7.5,0,13.6-6.1,13.6-13.6
					C28,11.2,24.6,6.1,19.4,4.1L19.4,4.1z"/>
			</g>
		</g>
		<g id="Grupo_5" transform="translate(563.949 228.462)">
			<g id="Grupo_3" transform="translate(31.73 0.005)">
				<path id="Trazado_8" class="st1" d="M0.9,28V3.5c0-0.2,0.1-0.3,0.3-0.3h6.4c1.1-0.1,2.3,0.3,3.2,0.9c0.8,0.7,1.5,1.6,1.7,2.6
					c0.4,1.3,0.6,2.7,0.5,4.1c0,1.3-0.1,2.7-0.4,4c-0.2,1-0.8,1.9-1.6,2.6c-0.9,0.7-2.1,1-3.2,0.9H6.1c-0.2,0-0.3,0.1-0.3,0.3V28
					c0,0.2-0.1,0.3-0.3,0.3H1.2C1,28.3,0.9,28.2,0.9,28z M5.8,13.6c0,0.2,0.1,0.3,0.3,0.3l0,0c0.9,0,1.5-0.3,1.7-0.8
					c0.2-0.7,0.3-1.5,0.3-2.3c0-0.7-0.1-1.5-0.3-2.2C7.6,8,7,7.7,6.4,7.8H6.1c-0.2,0-0.3,0.1-0.3,0.3L5.8,13.6z"/>
				<path id="Trazado_9" class="st1" d="M18.5,28.5c-1,0.1-1.9-0.2-2.7-0.8c-0.7-0.6-1.1-1.4-1.3-2.3c-0.2-1.1-0.4-2.2-0.3-3.3
					c0-1.1,0.1-2.2,0.4-3.2c0.2-0.8,0.7-1.5,1.3-2c0.8-0.6,1.6-1.1,2.6-1.4l3-1c0.1,0,0.2-0.1,0.2-0.3v-2c0-1.2-0.4-1.7-1.1-1.7
					s-1,0.5-1,1.4v1c0,0.2-0.1,0.3-0.3,0.3h-4.4c-0.2,0-0.3-0.1-0.3-0.3v-0.3c0-2.1,0.5-3.6,1.5-4.5c1-0.9,2.6-1.3,4.8-1.3
					C22,6.8,23,7,24,7.4c0.9,0.4,1.6,1,2.1,1.8c0.6,0.9,0.8,1.9,0.8,2.9v16c0,0.2-0.1,0.3-0.3,0.3h-4.5c-0.2,0-0.3-0.1-0.3-0.3v-0.9
					c0-0.2-0.1-0.3-0.3-0.3c-0.1,0-0.2,0.1-0.2,0.1c-0.2,0.3-0.4,0.6-0.7,0.8C19.9,28.3,19.2,28.6,18.5,28.5z M20.5,24.6
					c0.4,0,0.7-0.2,0.9-0.5c0.2-0.4,0.2-0.7,0.2-1.1v-5.5c0-0.2-0.1-0.3-0.3-0.3h-0.1c-0.5,0.2-0.9,0.5-1.2,0.9
					c-0.4,0.5-0.6,1.2-0.6,1.9v2.8C19.4,23.9,19.8,24.6,20.5,24.6L20.5,24.6z"/>
				<path id="Trazado_10" class="st1" d="M28.7,28V7.2c0-0.2,0.1-0.3,0.3-0.3h4.6c0.2,0,0.3,0.1,0.3,0.3V8c0,0.2,0.1,0.3,0.3,0.3
					c0.1,0,0.2,0,0.2-0.1c0.2-0.3,0.5-0.6,0.8-0.8c0.6-0.4,1.3-0.7,2.1-0.7c0.2,0,0.3,0.1,0.3,0.3l0,0v3.7c0,0.2-0.1,0.3-0.3,0.3
					c-0.4,0-0.8,0.1-1.2,0.1c-0.5,0.1-1,0.2-1.5,0.4c-0.4,0.1-0.7,0.3-0.7,0.4V28c0,0.2-0.1,0.3-0.3,0.3H29
					C28.9,28.3,28.7,28.2,28.7,28L28.7,28z"/>
				<path id="Trazado_11" class="st1" d="M46.3,31.6v-4.3c0-0.2-0.1-0.3-0.3-0.3c-0.1,0-0.2,0-0.2,0.1c-0.2,0.3-0.4,0.5-0.6,0.8
					c-0.6,0.5-1.3,0.7-2,0.7c-0.8,0-1.6-0.1-2.4-0.5c-0.6-0.4-1-0.9-1.3-1.5c-0.3-0.7-0.5-1.5-0.6-2.2c-0.1-0.9-0.1-1.8-0.1-2.8
					v-9.4c-0.1-1.4,0.2-2.8,0.9-4c0.6-1,1.8-1.6,3-1.5c1.3-0.1,2.5,0.4,3.2,1.5c0.1,0.1,0.3,0.2,0.4,0.1c0.1-0.1,0.1-0.1,0.1-0.2
					V7.2c0-0.2,0.1-0.3,0.3-0.3h4.6c0.2,0,0.3,0.1,0.3,0.3v24.4c0,0.2-0.1,0.3-0.3,0.3h-4.6C46.4,31.9,46.3,31.8,46.3,31.6z
					 M45,24.5c0.4,0,0.8-0.3,0.9-0.7c0.2-0.6,0.3-1.3,0.3-2v-9c0-0.5-0.1-1-0.2-1.5c-0.1-0.5-0.5-0.8-1-0.7c-0.5-0.1-0.9,0.2-1,0.7
					s-0.2,1-0.2,1.5v9C43.8,23.7,44.2,24.5,45,24.5L45,24.5z"/>
				<path id="Trazado_12" class="st1" d="M57.6,28.5c-0.9,0.1-1.9-0.2-2.6-0.7c-0.6-0.5-1.1-1.2-1.2-2c-0.2-1-0.3-2-0.3-3V7.2
					c0-0.2,0.1-0.3,0.3-0.3l0,0h4.6c0.2,0,0.3,0.1,0.3,0.3l0,0v15.1c0,0.6,0,1.2,0.2,1.8c0.2,0.4,0.6,0.6,0.9,0.5
					c0.5,0,0.9-0.3,1-0.7c0.2-0.6,0.2-1.2,0.2-1.8V7.2c0-0.2,0.1-0.3,0.3-0.3l0,0h4.5c0.2,0,0.3,0.1,0.3,0.3l0,0V28
					c0,0.2-0.1,0.3-0.3,0.3l0,0h-4.5c-0.2,0-0.3-0.1-0.3-0.3l0,0v-0.8c0-0.2-0.1-0.3-0.3-0.3c-0.1,0-0.2,0.1-0.2,0.1
					c-0.2,0.3-0.4,0.6-0.6,0.8C59.1,28.4,58.3,28.6,57.6,28.5z"/>
				<path id="Trazado_13" class="st1" d="M74,28.5c-1.3,0.1-2.5-0.2-3.6-0.9c-0.9-0.6-1.6-1.4-1.9-2.5c-0.4-1.3-0.6-2.6-0.6-3.9
					v-8.5c-0.1-1.7,0.5-3.3,1.7-4.5c1.3-1.1,3-1.6,4.7-1.5c4.1,0,6.2,2,6.2,6.1v1.6c0,1.6,0,2.8,0,3.5c0,0.2-0.1,0.3-0.3,0.3h-6.9
					c-0.2,0-0.3,0.1-0.3,0.3l0,0v3.7c0,0.4,0,0.7,0.1,1.1c0,0.3,0.1,0.6,0.3,0.9c0.2,0.2,0.5,0.4,0.8,0.4c0.5,0.1,0.9-0.2,1-0.7
					c0.1-0.6,0.2-1.2,0.2-1.8v-1.8c0-0.2,0.1-0.3,0.3-0.3l0,0h4.5c0.2,0,0.3,0.1,0.3,0.3l0,0v0.9c0,1.4-0.2,2.7-0.6,4
					c-0.4,1-1.1,1.9-2,2.4C76.7,28.3,75.3,28.6,74,28.5z M73.2,15.5h1.9c0.2,0,0.3-0.1,0.3-0.3l0,0v-2.5c0-0.6-0.1-1.1-0.3-1.7
					c-0.2-0.3-0.5-0.5-0.9-0.5s-0.7,0.2-0.9,0.5c-0.3,0.5-0.4,1.1-0.4,1.7v2.6C72.9,15.4,73.1,15.5,73.2,15.5L73.2,15.5z"/>
				<path id="Trazado_14" class="st1" d="M88.5,28.5c-4.3,0-6.4-2.2-6.4-6.6v-8.6c-0.1-1.8,0.5-3.5,1.7-4.8c2.7-2.4,6.7-2.4,9.4,0
					c1.2,1.3,1.8,3.1,1.7,4.8v8.6C94.9,26.3,92.8,28.5,88.5,28.5z M88.5,24.6c0.4,0,0.7-0.1,0.9-0.5c0.2-0.4,0.3-0.8,0.3-1.2V12.5
					c0-1.2-0.4-1.9-1.2-1.9c-0.8,0-1.2,0.6-1.2,1.9V23c0,0.4,0.1,0.8,0.3,1.2C87.8,24.5,88.1,24.6,88.5,24.6z"/>
			</g>
			<g id="Grupo_4" transform="translate(0)">
				<path id="Trazado_15" class="st2" d="M4.8,27.9v-8l0,0L0.9,3.4c0-0.1,0.1-0.2,0.2-0.2l0,0h4.5c0.1,0,0.2,0.1,0.2,0.2L7,10.5
					c0,0.1,0.1,0.2,0.2,0.1c0.1,0,0.1-0.1,0.1-0.1l1.2-7.1c0-0.1,0.1-0.2,0.2-0.2h4.5c0.1,0,0.2,0.1,0.2,0.2l0,0L9.5,19.9l0,0v8
					c0,0.1-0.1,0.2-0.2,0.2l0,0H5C4.9,28.1,4.8,28,4.8,27.9z"/>
				<path id="Trazado_16" class="st2" d="M20.8,28.3c-4.2,0-6.3-2.2-6.3-6.6v-8.5c-0.1-1.8,0.5-3.5,1.7-4.8c2.6-2.4,6.7-2.4,9.3,0
					c1.2,1.3,1.8,3,1.7,4.8v8.5C27.2,26.1,25,28.3,20.8,28.3z M20.8,24.4c0.4,0,0.7-0.1,0.9-0.5c0.2-0.4,0.3-0.8,0.3-1.2V12.4
					c0-1.2-0.4-1.9-1.2-1.9s-1.2,0.7-1.2,1.9v10.4c0,0.4,0.1,0.8,0.3,1.2C20.1,24.3,20.4,24.4,20.8,24.4L20.8,24.4z"/>
			</g>
		</g>
	</g>
</g>
</svg>
