<svg xmlns="http://www.w3.org/2000/svg" width="125.747" height="102.652" viewBox="0 0 125.747 102.652">
  <g id="Grupo_15" data-name="Grupo 15" transform="translate(-563.949 -154.5)">
    <g id="Grupo_2" data-name="Grupo 2" transform="translate(575.654 154.5)">
      <path id="Trazado_1" data-name="Trazado 1" d="M650.2,358.719c-1.649-4.466-5.56-7.137-8.736-5.964s-4.414,5.743-2.766,10.21,5.56,7.137,8.736,5.964S651.847,363.185,650.2,358.719Zm-3.969,6.19a2.354,2.354,0,0,1-.818.145,4.153,4.153,0,0,1-3.519-2.971c-.793-2.148-.138-4.376,1.46-4.966s3.544.678,4.337,2.827S647.828,364.319,646.23,364.909Z" transform="translate(-637.967 -321.171)" fill="#0f57c2"/>
      <path id="Trazado_2" data-name="Trazado 2" d="M862.2,485.719c-1.649-4.466-5.56-7.137-8.736-5.964s-4.414,5.743-2.766,10.21,5.56,7.137,8.736,5.964S863.847,490.185,862.2,485.719Zm-3.969,6.19a2.354,2.354,0,0,1-.818.145,4.153,4.153,0,0,1-3.519-2.971c-.793-2.148-.138-4.376,1.46-4.966s3.544.678,4.337,2.827S859.828,491.319,858.23,491.909Z" transform="translate(-816.443 -428.088)" fill="#0f57c2"/>
      <path id="Trazado_3" data-name="Trazado 3" d="M1043.365,161.4a21.99,21.99,0,0,0-15.477-6.891c-.2-.005-.4-.008-.592-.008a22.135,22.135,0,0,0-22.116,21.555,17.99,17.99,0,0,0,.341,3.719,50.356,50.356,0,0,1,4.5,8.19l8.363,7.2c1.627,1.328,2.8,4.587,2.851,7.932a13.589,13.589,0,0,1-.7,4.645c2.613,2.939,4.747,4.578,5.838,4.607h.014c1.681,0,7.235-5.183,12.827-12.9,6.263-8.643,10.085-16.955,10.224-22.234A21.991,21.991,0,0,0,1043.365,161.4Zm.152,21.154a17.289,17.289,0,1,1-9.968-22.107A17.285,17.285,0,0,1,1043.518,182.553Z" transform="translate(-947.108 -154.5)" fill="#0f57c2"/>
      <path id="Trazado_4" data-name="Trazado 4" d="M713.986,257.486a2.881,2.881,0,0,1-2.373-.964,3.234,3.234,0,0,1-.109-3.218,6.481,6.481,0,0,1,1.859-2.611,3.523,3.523,0,0,1,1.5-.674,6.452,6.452,0,0,0-1.723-2.681l-8.5-7.319s-8.054-20.3-25.476-24.131c-8.489-1.869-18.153,2.492-25.248,8.2l.057-.009c3.1-.464,8.155-.221,14.639,3.562a.815.815,0,0,1,.36,1,.8.8,0,0,1-1.141.39c-6.04-3.53-10.684-3.792-13.516-3.391l-.041.006a8.136,8.136,0,0,0-4.733,2.463,33.661,33.661,0,0,0-2.917,3.5,15.15,15.15,0,0,0-1.742,3.273.678.678,0,0,0,.958.84,5.462,5.462,0,0,1,.674-.3c3.951-1.458,8.816,1.864,10.867,7.42a13.1,13.1,0,0,1,.479,8.071,1.976,1.976,0,0,0,.886,2.274l15.326,8.917a1.32,1.32,0,0,0,1.96-.922c.491-2.71,1.948-4.859,4.164-5.677,3.951-1.458,8.816,1.864,10.867,7.42a14.241,14.241,0,0,1,.907,5.059,2.094,2.094,0,0,0,2.041,2.132,26.235,26.235,0,0,0,18.332-6.847,9.984,9.984,0,0,0,3.2-6A6.334,6.334,0,0,1,713.986,257.486ZM661.728,237.14c-1.838-1.571-5.469-4.495-7.793-5.189a.655.655,0,0,1-.259-1.115c1.572-1.4,5.177-3.535,10.967-.967a1.586,1.586,0,0,1,.827,2.059l-2,4.8A1.108,1.108,0,0,1,661.728,237.14Zm17.061,12.4-10.465-5.8a2.1,2.1,0,0,1-.992-2.452l2.074-6.814a1.2,1.2,0,0,1,1.7-.721c6.431,3.3,8.769,10.462,9.588,14.381A1.3,1.3,0,0,1,678.789,249.542Zm11.061-1.994a1.553,1.553,0,0,1-1.255.146,1.628,1.628,0,0,1-.915-.755c-.769-1.331-1.627-2.716-2.456-4.056a46.692,46.692,0,0,1-3.268-5.757h0a1.9,1.9,0,0,1,.252-1.812c3.214-4.347,9.113-6.413,11.31-6.687a2.667,2.667,0,0,1,2.283.842,45.881,45.881,0,0,1,6.291,9.738,1.051,1.051,0,0,1-.406,1.372Zm5.2,12.911a3.786,3.786,0,0,1,3.782-3.782c1.838,0,5.354,1.473,5.354,3.782s-3.515,3.782-5.354,3.782A3.787,3.787,0,0,1,695.049,260.459Zm18.2-.527a11.284,11.284,0,0,1-9.122,4.977c-.2,0-.32-.008-.351-.01a.712.712,0,0,1,.105-1.419,9.764,9.764,0,0,0,8.191-4.349.73.73,0,0,1,.943-.229A.712.712,0,0,1,713.248,259.933Z" transform="translate(-643.748 -205.811)" fill="#f60"/>
      <path id="Trazado_5" data-name="Trazado 5" d="M1065.357,472.233a22.448,22.448,0,0,0-2.436-1.193c-3.811,4.784-8.928,10.272-11.688,10.272h-.05c-1.563-.041-3.716-1.533-6.414-4.434a9.871,9.871,0,0,1-2.328,3,29.794,29.794,0,0,1-7.75,4.937q.548.37,1.162.722a31.321,31.321,0,0,0,14.509,3.592c.309.007.621.011.93.011a30.5,30.5,0,0,0,14.03-3.065c3.453-1.838,5.387-4.222,5.446-6.711C1070.827,476.794,1068.906,474.262,1065.357,472.233Z" transform="translate(-971.954 -420.984)" fill="#f60"/>
      <g id="Grupo_1" data-name="Grupo 1" transform="translate(66.642 8.488)">
        <path id="Trazado_6" data-name="Trazado 6" d="M1141.005,276.305q1.588,0,1.944-.891a7.418,7.418,0,0,0,.356-2.625,7.083,7.083,0,0,0-.348-2.5,1.56,1.56,0,0,0-1.644-.883h-.308a.324.324,0,0,0-.324.324v6.253A.324.324,0,0,0,1141.005,276.305Z" transform="translate(-1127.826 -259.722)" fill="#0f57c2"/>
        <path id="Trazado_7" data-name="Trazado 7" d="M1077.85,209.1a13.566,13.566,0,0,0-11.211,24.658V212.983a.324.324,0,0,1,.324-.324h7.209a6.056,6.056,0,0,1,3.751,1.053,5.768,5.768,0,0,1,1.984,3,15.823,15.823,0,0,1,.6,4.634,17.962,17.962,0,0,1-.5,4.512,5.5,5.5,0,0,1-1.79,2.973,5.628,5.628,0,0,1-3.653,1.053h-1.993a.324.324,0,0,0-.324.324V235.3c.235.012.471.02.705.02a13.57,13.57,0,0,0,4.9-26.224Z" transform="translate(-1059.389 -208.177)" fill="#0f57c2"/>
      </g>
    </g>
    <g id="Grupo_5" data-name="Grupo 5" transform="translate(563.949 228.462)">
      <g id="Grupo_3" data-name="Grupo 3" transform="translate(31.73 0.005)">
        <path id="Trazado_8" data-name="Trazado 8" d="M764.6,647.075V622.529a.285.285,0,0,1,.285-.285h6.351a5.334,5.334,0,0,1,3.3.927,5.082,5.082,0,0,1,1.748,2.64,13.946,13.946,0,0,1,.528,4.082,15.827,15.827,0,0,1-.442,3.974,4.849,4.849,0,0,1-1.577,2.619,4.958,4.958,0,0,1-3.218.928h-1.755a.285.285,0,0,0-.285.285v9.376a.285.285,0,0,1-.285.285h-4.367A.285.285,0,0,1,764.6,647.075Zm4.938-14.456a.285.285,0,0,0,.285.285h0q1.4,0,1.713-.785a6.532,6.532,0,0,0,.314-2.312,6.237,6.237,0,0,0-.307-2.2,1.374,1.374,0,0,0-1.448-.778h-.271a.285.285,0,0,0-.285.285Z" transform="translate(-764.601 -622.244)" fill="#0f57c2"/>
        <path id="Trazado_9" data-name="Trazado 9" d="M852.867,666.127a3.979,3.979,0,0,1-2.719-.828,4.241,4.241,0,0,1-1.277-2.269,14.183,14.183,0,0,1-.342-3.268,11.1,11.1,0,0,1,.385-3.2,4.3,4.3,0,0,1,1.32-2.048,7.8,7.8,0,0,1,2.576-1.356l2.975-1.019a.285.285,0,0,0,.193-.27v-1.994q0-1.726-1.127-1.727-1.028,0-1.028,1.4v1a.285.285,0,0,1-.285.285h-4.41a.284.284,0,0,1-.285-.282v-.417q0-3.2,1.506-4.531t4.774-1.334a7.44,7.44,0,0,1,3.068.607,4.961,4.961,0,0,1,2.148,1.791,5.148,5.148,0,0,1,.792,2.925v16.026a.285.285,0,0,1-.285.285h-4.51a.285.285,0,0,1-.285-.285v-.864a.285.285,0,0,0-.526-.152,3.343,3.343,0,0,1-.7.816A2.969,2.969,0,0,1,852.867,666.127Zm2.012-3.967a.85.85,0,0,0,.856-.528,2.846,2.846,0,0,0,.228-1.142v-5.525a.286.286,0,0,0-.416-.254,4.021,4.021,0,0,0-1.225.891,2.758,2.758,0,0,0-.585,1.905v2.754Q853.738,662.16,854.879,662.16Z" transform="translate(-835.257 -640.782)" fill="#0f57c2"/>
        <path id="Trazado_10" data-name="Trazado 10" d="M940.668,665.5V644.667a.285.285,0,0,1,.285-.285h4.624a.285.285,0,0,1,.285.285v.821a.285.285,0,0,0,.517.166,3.414,3.414,0,0,1,.8-.83,3.727,3.727,0,0,1,2.065-.691.288.288,0,0,1,.3.286v3.694a.284.284,0,0,1-.272.284,11.026,11.026,0,0,0-1.227.13,8.351,8.351,0,0,0-1.527.371q-.657.236-.656.521V665.5a.285.285,0,0,1-.285.285h-4.624A.285.285,0,0,1,940.668,665.5Z" transform="translate(-912.826 -640.671)" fill="#0f57c2"/>
        <path id="Trazado_11" data-name="Trazado 11" d="M1011.374,669.181v-4.32a.285.285,0,0,0-.524-.155,3.951,3.951,0,0,1-.611.75,2.863,2.863,0,0,1-2.048.671,4.424,4.424,0,0,1-2.355-.542,3.321,3.321,0,0,1-1.3-1.5,7.355,7.355,0,0,1-.564-2.241,26.239,26.239,0,0,1-.136-2.754v-9.3a7.972,7.972,0,0,1,.878-4,3.15,3.15,0,0,1,2.975-1.527,3.313,3.313,0,0,1,3.16,1.5.285.285,0,0,0,.522-.158v-.828a.285.285,0,0,1,.285-.285h4.624a.285.285,0,0,1,.285.285v24.4a.285.285,0,0,1-.285.285h-4.624A.285.285,0,0,1,1011.374,669.181Zm-1.227-7.05a.971.971,0,0,0,.949-.7,5.458,5.458,0,0,0,.278-1.955v-9.033a5.149,5.149,0,0,0-.221-1.491.936.936,0,0,0-.977-.735.967.967,0,0,0-1.042.7,5.193,5.193,0,0,0-.214,1.527v9Q1008.919,662.131,1010.147,662.131Z" transform="translate(-966.007 -640.782)" fill="#0f57c2"/>
        <path id="Trazado_12" data-name="Trazado 12" d="M1100.611,667.342a4.157,4.157,0,0,1-2.619-.714,3.573,3.573,0,0,1-1.234-1.991,12.088,12.088,0,0,1-.328-2.99V645.992a.285.285,0,0,1,.285-.285h4.567a.285.285,0,0,1,.286.285v15.056a5.489,5.489,0,0,0,.2,1.791.893.893,0,0,0,.942.507.938.938,0,0,0,1.006-.714,6.778,6.778,0,0,0,.207-1.841v-14.8a.285.285,0,0,1,.285-.285h4.524a.285.285,0,0,1,.285.285v20.836a.285.285,0,0,1-.285.285h-4.538a.285.285,0,0,1-.285-.285v-.776a.286.286,0,0,0-.531-.146,3.957,3.957,0,0,1-.632.793A3.02,3.02,0,0,1,1100.611,667.342Z" transform="translate(-1043.956 -641.997)" fill="#0f57c2"/>
        <path id="Trazado_13" data-name="Trazado 13" d="M1194.1,666.127a6.755,6.755,0,0,1-3.639-.856,4.725,4.725,0,0,1-1.941-2.469,11.407,11.407,0,0,1-.585-3.882v-8.605a5.751,5.751,0,0,1,1.713-4.517,6.8,6.8,0,0,1,4.709-1.534q6.165,0,6.165,6.051v1.556q0,2.471-.044,3.523a.285.285,0,0,1-.285.273h-6.864a.285.285,0,0,0-.285.285V659.8a8.659,8.659,0,0,0,.071,1.12,2,2,0,0,0,.321.906.914.914,0,0,0,.806.357.924.924,0,0,0,1-.692,6.686,6.686,0,0,0,.2-1.805v-1.77a.285.285,0,0,1,.286-.285h4.51a.285.285,0,0,1,.285.285v.928a11.8,11.8,0,0,1-.592,4.017,4.521,4.521,0,0,1-2,2.44A7.6,7.6,0,0,1,1194.1,666.127Zm-.8-13h1.855a.285.285,0,0,0,.285-.285v-2.6a3.575,3.575,0,0,0-.285-1.662.924.924,0,0,0-.856-.507,1.087,1.087,0,0,0-.949.485,3.1,3.1,0,0,0-.335,1.684v2.6A.285.285,0,0,0,1193.3,653.126Z" transform="translate(-1120.993 -640.782)" fill="#0f57c2"/>
        <path id="Trazado_14" data-name="Trazado 14" d="M1284.576,666.127q-6.393,0-6.393-6.636V650.9a6.764,6.764,0,0,1,1.7-4.831,7.027,7.027,0,0,1,9.4,0,6.764,6.764,0,0,1,1.7,4.831v8.591Q1290.984,666.127,1284.576,666.127Zm0-3.939a.989.989,0,0,0,.921-.464,2.26,2.26,0,0,0,.278-1.177V650.086q0-1.869-1.2-1.869t-1.2,1.869v10.461a2.258,2.258,0,0,0,.278,1.177A.988.988,0,0,0,1284.576,662.188Z" transform="translate(-1196.967 -640.782)" fill="#0f57c2"/>
      </g>
      <g id="Grupo_4" data-name="Grupo 4" transform="translate(0)">
        <path id="Trazado_15" data-name="Trazado 15" d="M567.869,646.9v-7.966a.2.2,0,0,0-.005-.046l-3.91-16.433a.2.2,0,0,1,.191-.242h4.518a.2.2,0,0,1,.194.165l1.164,7.081a.2.2,0,0,0,.388,0l1.164-7.081a.2.2,0,0,1,.194-.165h4.5a.2.2,0,0,1,.191.242l-3.9,16.433a.2.2,0,0,0-.005.045V646.9a.2.2,0,0,1-.2.2h-4.3A.2.2,0,0,1,567.869,646.9Z" transform="translate(-563.949 -622.214)" fill="#f60"/>
        <path id="Trazado_16" data-name="Trazado 16" d="M656.14,665.689q-6.334,0-6.334-6.574V650.6a6.7,6.7,0,0,1,1.682-4.786,6.961,6.961,0,0,1,9.317,0,6.7,6.7,0,0,1,1.683,4.786v8.511Q662.488,665.689,656.14,665.689Zm0-3.9a.979.979,0,0,0,.912-.46,2.238,2.238,0,0,0,.276-1.166V649.8q0-1.852-1.188-1.852t-1.188,1.852v10.363a2.236,2.236,0,0,0,.276,1.166A.979.979,0,0,0,656.14,661.787Z" transform="translate(-636.229 -640.579)" fill="#f60"/>
      </g>
    </g>
  </g>
</svg>
