<svg xmlns="http://www.w3.org/2000/svg" viewBox="0 0 86.99 119.33"><defs><style>.cls-1{isolation:isolate;}.cls-2{fill:#7a82bd;}.cls-3{fill:#f5be94;}.cls-4{fill:#f8e4df;}.cls-14,.cls-4{mix-blend-mode:multiply;}.cls-5{fill:#4ba8dc;}.cls-6{fill:#f3ab82;}.cls-7{fill:#4c2710;}.cls-8{fill:#362010;}.cls-9{fill:#fff;}.cls-10{fill:#eda780;}.cls-11{fill:none;stroke:#ec9e86;stroke-linecap:round;stroke-linejoin:round;}.cls-12{fill:#381b04;}.cls-13,.cls-14{fill:#6d4c98;}.cls-15{fill:#95bbe1;}</style></defs><title>Persona3</title><g class="cls-1"><g id="Capa_2" data-name="Capa 2"><g id="Capa_1-2" data-name="Capa 1"><rect class="cls-2" x="32.27" y="88.38" width="22.43" height="8.26"/><path class="cls-3" d="M52.49,78.69H34.27s.46,11.5-1.77,14.84h22C52.26,90.19,52.49,78.69,52.49,78.69Z"/><path class="cls-4" d="M34,87.38a19.38,19.38,0,0,0,9.6,2.55,23,23,0,0,0,9.3-2.08,72.71,72.71,0,0,1-.45-9.16H34.27A73.26,73.26,0,0,1,34,87.38Z"/><path class="cls-3" d="M78.7,101.5,52.25,92H34.71L8.27,101.5s-9.26,3-8.18,17.83H86.88C88.14,103.64,78.7,101.5,78.7,101.5Z"/><path class="cls-5" d="M78.7,101.5,57.09,93.76,43.5,103.24l-13.28-9.6L8.27,101.5s-9.26,3-8.18,17.83H86.88C88.14,103.64,78.7,101.5,78.7,101.5Z"/><path class="cls-3" d="M63.45,56.07c-.63,3.89.46,7.34,2.43,7.71s4.08-2.47,4.7-6.35-.46-7.34-2.44-7.71S64.08,52.19,63.45,56.07Z"/><path class="cls-6" d="M65.82,55s0-.22.11-.58a6.87,6.87,0,0,1,.47-1.39c.25-.52.65-1.12,1.15-1.15a1,1,0,0,1,.38.05l.19.1a1.3,1.3,0,0,1,.14.12,2.1,2.1,0,0,1,.47.85,4.88,4.88,0,0,1,.23,1.1,5.19,5.19,0,0,1,0,1.11c-.06.39-.08.79-.15,1.13s-.13.67-.19,1-.14.59-.2.84-.13.46-.17.64c-.1.35-.15.56-.15.56s.1-.17.26-.5c.08-.17.19-.36.28-.6s.22-.5.33-.8.2-.65.31-1,.16-.74.24-1.13a5.39,5.39,0,0,0,0-1.33,5.49,5.49,0,0,0-.25-1.32,2.76,2.76,0,0,0-.68-1.14,2,2,0,0,0-.28-.2l-.27-.11a1.73,1.73,0,0,0-.6,0,1.57,1.57,0,0,0-1,.69,3.45,3.45,0,0,0-.47,1,6.75,6.75,0,0,0-.27,1.57A3.91,3.91,0,0,0,65.82,55Z"/><path class="cls-6" d="M65.82,55s-.18-.42,1.11-.52c0,0,1.45.27.6,2.2A6.49,6.49,0,0,0,67.1,58c-.13.65.1,1.53-.25,2.1-.45.74-1.59.32-1.66-.53a4.88,4.88,0,0,1,.93-2.23A1.73,1.73,0,0,0,65.82,55Z"/><path class="cls-6" d="M65.19,59.51s0,0-.1.1a1.46,1.46,0,0,0-.19.36,1.27,1.27,0,0,0-.06.28,1.12,1.12,0,0,0,0,.32c0,.11,0,.23,0,.35s.07.21.11.32a1.4,1.4,0,0,0,.15.3,2,2,0,0,0,.19.22.82.82,0,0,0,.39.28,1.28,1.28,0,0,0,.45.11,3.59,3.59,0,0,0-.21-.47,1.62,1.62,0,0,0-.1-.18,2.14,2.14,0,0,0-.1-.22,1.86,1.86,0,0,0-.1-.2.85.85,0,0,1-.09-.22,2.1,2.1,0,0,1-.15-.42,1.66,1.66,0,0,1-.06-.21c0-.08,0-.15,0-.22C65.22,59.75,65.19,59.51,65.19,59.51Z"/><path class="cls-3" d="M23.83,56.07c.63,3.89-.46,7.34-2.43,7.71s-4.07-2.47-4.69-6.35.46-7.34,2.43-7.71S23.21,52.19,23.83,56.07Z"/><path class="cls-6" d="M21.47,55s0-.22-.11-.58a7,7,0,0,0-.48-1.39c-.24-.52-.64-1.12-1.14-1.15a1,1,0,0,0-.38.05l-.19.1a1.3,1.3,0,0,0-.14.12,2.11,2.11,0,0,0-.48.85,5.5,5.5,0,0,0-.23,1.1,5.91,5.91,0,0,0,0,1.11c.06.39.08.79.15,1.13s.13.67.19,1,.14.59.19.84.13.46.18.64c.1.35.15.56.15.56s-.1-.17-.26-.5c-.08-.17-.19-.36-.29-.6s-.21-.5-.32-.8-.21-.65-.31-1-.16-.74-.24-1.13A5,5,0,0,1,17.7,54,6,6,0,0,1,18,52.69a2.68,2.68,0,0,1,.69-1.14,1.55,1.55,0,0,1,.28-.2l.27-.11a1.67,1.67,0,0,1,.59,0,1.56,1.56,0,0,1,1,.69,3.75,3.75,0,0,1,.47,1,6.16,6.16,0,0,1,.26,1.57A3.38,3.38,0,0,1,21.47,55Z"/><path class="cls-6" d="M21.47,55s.18-.42-1.12-.52c0,0-1.45.27-.6,2.2A5.94,5.94,0,0,1,20.19,58c.13.65-.1,1.53.24,2.1.45.74,1.59.32,1.66-.53a5,5,0,0,0-.92-2.23A1.73,1.73,0,0,1,21.47,55Z"/><path class="cls-6" d="M22.09,59.51a.38.38,0,0,1,.1.1,1.46,1.46,0,0,1,.19.36,1.28,1.28,0,0,1,.07.28.85.85,0,0,1,0,.32c0,.11,0,.23,0,.35s-.07.21-.1.32a2.1,2.1,0,0,1-.15.3c-.06.08-.13.15-.19.22a.84.84,0,0,1-.4.28,1.21,1.21,0,0,1-.44.11,2.86,2.86,0,0,1,.2-.47,1.74,1.74,0,0,1,.11-.18l.09-.22a2,2,0,0,1,.11-.2,1.43,1.43,0,0,0,.08-.22,2.14,2.14,0,0,0,.16-.42,1.66,1.66,0,0,0,.06-.21c0-.08,0-.15.05-.22C22.07,59.75,22.09,59.51,22.09,59.51Z"/><path class="cls-3" d="M43.88,14.17h-.62c-15.66.14-24.45,4.6-22,33.14L23.91,70a9.46,9.46,0,0,0,5,6.63L37.44,83s4,1.8,6.14,1.62c2.09.18,6.13-1.62,6.13-1.62l8.5-6.3a9.46,9.46,0,0,0,5-6.63l2.84-22.21C68.48,19.29,59.54,14.31,43.88,14.17Z"/><path class="cls-7" d="M62.29,56.07c-.56,2.42-.94,6.3-2.51,8.37a5.94,5.94,0,0,1-4.57,2.34,16.83,16.83,0,0,1-3.75-.25,18.72,18.72,0,0,0-2.85-.67,5.09,5.09,0,0,0-2.81.87,4.16,4.16,0,0,1-3.52.17,16.3,16.3,0,0,0-5.46-1.19c-2.16.08-4.64.66-6.75,0C27.81,65,26.63,63.05,25.75,61c-.48-1.11-.82-3.75-1.16-4.91-.42-1.43-1.08-.44-2.39-.46l1.71,16a9.48,9.48,0,0,0,5,6.63l8.51,6.3s4,1.8,6.14,1.62c2.09.18,6.13-1.62,6.13-1.62l8.5-6.31a9.45,9.45,0,0,0,5-6.62l1.88-16.33C63.64,55.29,62.68,54.39,62.29,56.07Z"/><path class="cls-8" d="M32,49.17c0,1.49.84,2.68,1.86,2.68s1.83-1.22,1.82-2.7-.84-2.68-1.85-2.67S32,47.69,32,49.17Z"/><path class="cls-9" d="M33.15,48.32a.8.8,0,1,1-.8-.8A.8.8,0,0,1,33.15,48.32Z"/><path class="cls-8" d="M55.25,49.17c0,1.49-.84,2.68-1.86,2.68s-1.84-1.22-1.83-2.7.84-2.68,1.86-2.67S55.26,47.69,55.25,49.17Z"/><path class="cls-9" d="M54.14,48.32a.8.8,0,1,0,.79-.8A.79.79,0,0,0,54.14,48.32Z"/><path class="cls-10" d="M46.35,63.61a5.16,5.16,0,0,1-1.48,1,5.72,5.72,0,0,1-1.77.48,5,5,0,0,1-1,0A5.17,5.17,0,0,1,41.2,65a5.36,5.36,0,0,1-.94-.29,7.1,7.1,0,0,1-.88-.42L39,64.08l-.08-.62c0-.27-.06-.51-.07-.77s0-.5,0-.75a8.23,8.23,0,0,1,.2-1.48,6.23,6.23,0,0,1,.5-1.43,5,5,0,0,1,.87-1.34,7.16,7.16,0,0,1,.42,1.51A10.3,10.3,0,0,1,41,60.63c0,.47,0,.94,0,1.41l0,.69c0,.23,0,.47-.07.67l-.45-.8c.2.12.38.28.59.39a4.83,4.83,0,0,0,.64.33c.21.1.45.16.68.25s.48.13.73.17a6.48,6.48,0,0,0,.77.08,7.09,7.09,0,0,0,.8,0A9.83,9.83,0,0,0,46.35,63.61Z"/><path class="cls-7" d="M37.74,43.7a1.3,1.3,0,0,1-1.46,1,14.2,14.2,0,0,0-7.45.62,1.34,1.34,0,0,1-1.59-.73h0a1.18,1.18,0,0,1,.65-1.66,16.78,16.78,0,0,1,8.77-.78,1.31,1.31,0,0,1,1.08,1.56Z"/><path class="cls-7" d="M48.84,43.7a1.3,1.3,0,0,0,1.46,1,14.2,14.2,0,0,1,7.45.62,1.34,1.34,0,0,0,1.59-.73h0a1.18,1.18,0,0,0-.65-1.66,16.78,16.78,0,0,0-8.77-.78,1.3,1.3,0,0,0-1.08,1.56Z"/><path class="cls-11" d="M44.41,73.63a4.87,4.87,0,0,1-2.2,0"/><path class="cls-9" d="M38.35,69.08l1.28,2.51s5.72,3.22,9.75-2.39A101.43,101.43,0,0,1,38.35,69.08Z"/><path class="cls-7" d="M32.5,20.73s5.85,7.07,19.06,8.94c0,0,13.43,4.64,13.25,12.21L62.44,55.61l2.68-.28s.08-5.53,3-5.61c0,0,2.66-11.11,2.62-13S67,16,67,16L52.62,5.71S37.05,3.42,29.82,0c0,0,1.65,4.38,4.06,5.71,0,0-9,1-9.87.76s1.25,4.75,1.25,4.75l-7.58,11.6,1.46,26.9s2.34.23,3.06,5.89h2.2L24,38.35S27.11,27.67,32.5,20.73Z"/><path class="cls-12" d="M31.9,20.1a35.78,35.78,0,0,1-6.72-8.75l-7.5,11.47v.07c2.48,4,4.95,7.94,7.56,11.82,1.37-3.73,3.86-9.6,7.26-14a16.91,16.91,0,0,0,2.35,2.18C33.84,22,32.86,21.07,31.9,20.1Z"/><polygon class="cls-2" points="43.49 103.19 41.71 94.09 32.27 88.38 30.9 94.12 43.49 103.19"/><polygon class="cls-2" points="43.49 103.19 45.27 94.09 54.7 88.38 56.08 94.12 43.49 103.19"/><path class="cls-13" d="M48,95.32H39a2.75,2.75,0,0,0-1.15,3.34l2.87,4.53h5.58l2.86-4.53A2.75,2.75,0,0,0,48,95.32Z"/><path class="cls-14" d="M48.61,95.84a5,5,0,0,1-.18,2.68,5.24,5.24,0,0,1-4,3.7,3.48,3.48,0,0,1-4.12-2.3c-.47-1.6-.73-3.41.28-4.6H39a2.75,2.75,0,0,0-1.15,3.34l2.87,4.53h5.58l2.86-4.53A2.54,2.54,0,0,0,48.61,95.84Z"/><polygon class="cls-13" points="40.7 103.19 37.62 119.33 49.38 119.33 46.28 103.19 40.7 103.19"/><polygon class="cls-15" points="41.71 94.09 37.25 102.26 26.34 94.85 32.27 88.38 41.71 94.09"/><polygon class="cls-15" points="45.27 94.09 49.73 102.26 60.64 94.85 54.7 88.38 45.27 94.09"/></g></g></g></svg>