<svg xmlns="http://www.w3.org/2000/svg" viewBox="0 0 86.99 115.76"><defs><style>.cls-1{isolation:isolate;}.cls-2{fill:#7fbdcf;}.cls-3{fill:#f5be94;}.cls-4{fill:#f8e4df;mix-blend-mode:multiply;}.cls-5{fill:#00b2e8;}.cls-6{fill:#cde8ea;}.cls-7{fill:#f3ab82;}.cls-8{fill:#362010;}.cls-9{fill:#fff;}.cls-10{fill:#eda780;}.cls-11{fill:#9d5c4d;}.cls-12{fill:none;stroke:#eaa588;stroke-linecap:round;stroke-linejoin:round;stroke-width:1.5px;}.cls-13{fill:#eaa588;}</style></defs><title>Persona2</title><g class="cls-1"><g id="Capa_2" data-name="Capa 2"><g id="Capa_1-2" data-name="Capa 1"><rect class="cls-2" x="32.28" y="84.85" width="22.43" height="8.26"/><path class="cls-3" d="M52.49,75.12H34.27S34.73,86.63,32.5,90h22C52.26,86.63,52.49,75.12,52.49,75.12Z"/><path class="cls-4" d="M34,83.81a19.38,19.38,0,0,0,9.6,2.55,23,23,0,0,0,9.3-2.08,74.86,74.86,0,0,1-.45-9.16H34.27A73.26,73.26,0,0,1,34,83.81Z"/><path class="cls-3" d="M78.7,97.94,52.25,88.46H34.71L8.27,97.94S-1,101,.09,115.76H86.88C88.14,100.08,78.7,97.94,78.7,97.94Z"/><path class="cls-5" d="M78.7,97.94,57.09,90.2,43.5,99.67l-13.28-9.6L8.27,97.94S-1,101,.09,115.76H86.88C88.14,100.08,78.7,97.94,78.7,97.94Z"/><polygon class="cls-2" points="43.5 99.67 41.72 90.56 32.28 84.85 30.91 90.6 43.5 99.67"/><polygon class="cls-6" points="41.72 90.56 37.25 98.73 26.35 91.33 32.28 84.85 41.72 90.56"/><polygon class="cls-2" points="43.5 99.67 45.28 90.56 54.71 84.85 56.09 90.6 43.5 99.67"/><polygon class="cls-6" points="45.28 90.56 49.74 98.73 60.64 91.33 54.71 84.85 45.28 90.56"/><path class="cls-3" d="M63.45,53.53c-.63,3.88.46,7.33,2.43,7.7s4.08-2.47,4.7-6.35-.46-7.34-2.44-7.71S64.08,49.64,63.45,53.53Z"/><path class="cls-7" d="M65.82,52.48s0-.22.11-.57a6.73,6.73,0,0,1,.47-1.4c.25-.52.65-1.12,1.15-1.15a1,1,0,0,1,.38,0l.19.1.14.12a2.1,2.1,0,0,1,.47.85,4.88,4.88,0,0,1,.23,1.1,5.2,5.2,0,0,1,0,1.11c-.07.39-.08.79-.15,1.13l-.19,1c-.08.31-.14.59-.2.84s-.13.46-.17.64c-.1.36-.15.56-.15.56s.1-.17.26-.5a5.59,5.59,0,0,0,.28-.59c.1-.24.22-.51.33-.81s.2-.65.31-1,.16-.74.24-1.13a5.72,5.72,0,0,0-.21-2.64A2.7,2.7,0,0,0,68.65,49a1.46,1.46,0,0,0-.28-.21l-.27-.1a1.36,1.36,0,0,0-.6,0,1.52,1.52,0,0,0-1,.68,3.38,3.38,0,0,0-.47,1,6,6,0,0,0-.26,1.56A3.38,3.38,0,0,0,65.82,52.48Z"/><path class="cls-7" d="M65.82,52.48s-.18-.42,1.12-.51c0,0,1.44.26.59,2.2a6.2,6.2,0,0,0-.43,1.3c-.13.65.1,1.53-.25,2.1-.45.75-1.59.32-1.65-.53a4.8,4.8,0,0,1,.92-2.23A1.73,1.73,0,0,0,65.82,52.48Z"/><path class="cls-7" d="M65.2,57a.51.51,0,0,0-.11.1,1.38,1.38,0,0,0-.19.37,1.81,1.81,0,0,0-.06.27,1.12,1.12,0,0,0,0,.32c0,.11,0,.23,0,.35s.07.21.11.32a1.4,1.4,0,0,0,.15.3,2,2,0,0,0,.19.22.76.76,0,0,0,.39.28,1.05,1.05,0,0,0,.45.11,4.47,4.47,0,0,0-.2-.47L65.82,59c0-.07-.06-.15-.1-.21a1.36,1.36,0,0,0-.1-.21,1,1,0,0,1-.09-.21,2.45,2.45,0,0,1-.15-.43,1.66,1.66,0,0,1-.06-.21c0-.08,0-.15,0-.21C65.22,57.2,65.2,57,65.2,57Z"/><path class="cls-3" d="M23.83,53.53c.63,3.88-.46,7.33-2.43,7.7s-4.07-2.47-4.69-6.35.46-7.34,2.43-7.71S23.21,49.64,23.83,53.53Z"/><path class="cls-7" d="M21.47,52.48s0-.22-.11-.57a7.38,7.38,0,0,0-.47-1.4c-.25-.52-.65-1.12-1.15-1.15a1,1,0,0,0-.38,0l-.19.1a1.3,1.3,0,0,0-.14.12,2.11,2.11,0,0,0-.48.85,5.5,5.5,0,0,0-.23,1.1,5.91,5.91,0,0,0,0,1.11c.06.39.08.79.15,1.13l.19,1c.08.31.14.59.19.84s.13.46.18.64c.1.36.15.56.15.56s-.1-.17-.26-.5c-.08-.16-.19-.35-.29-.59s-.21-.51-.32-.81-.21-.65-.31-1-.16-.74-.24-1.13a5,5,0,0,1-.05-1.33A5.94,5.94,0,0,1,18,50.15,2.72,2.72,0,0,1,18.64,49a1.21,1.21,0,0,1,.28-.21l.27-.1a1.31,1.31,0,0,1,.59,0,1.51,1.51,0,0,1,1,.68,3.65,3.65,0,0,1,.47,1,6,6,0,0,1,.26,1.56A5.42,5.42,0,0,1,21.47,52.48Z"/><path class="cls-7" d="M21.47,52.48s.18-.42-1.12-.51c0,0-1.45.26-.6,2.2a5.69,5.69,0,0,1,.44,1.3c.13.65-.1,1.53.24,2.1.45.75,1.59.32,1.66-.53a4.91,4.91,0,0,0-.92-2.23A1.73,1.73,0,0,1,21.47,52.48Z"/><path class="cls-7" d="M22.09,57a.38.38,0,0,1,.1.1,1.38,1.38,0,0,1,.19.37,1.07,1.07,0,0,1,.07.27.85.85,0,0,1,0,.32c0,.11,0,.23,0,.35s-.07.21-.1.32a2.1,2.1,0,0,1-.15.3c-.06.08-.13.15-.19.22a.74.74,0,0,1-.4.28,1,1,0,0,1-.44.11,2.86,2.86,0,0,1,.2-.47,1.74,1.74,0,0,1,.11-.18l.09-.21a1.39,1.39,0,0,1,.11-.21c0-.06,0-.15.08-.21a2.5,2.5,0,0,0,.16-.43,1.66,1.66,0,0,0,.06-.21c0-.08,0-.15,0-.21A4.28,4.28,0,0,0,22.09,57Z"/><path class="cls-3" d="M43.88,11.62h-.62c-15.66.14-24.45,4.6-22,33.14l2.7,22.73a9.46,9.46,0,0,0,5,6.63l8.51,6.31s4,1.79,6.14,1.61c2.09.18,6.13-1.62,6.13-1.62l8.5-6.3a9.46,9.46,0,0,0,5-6.63l2.84-22.21C68.48,16.74,59.54,11.76,43.88,11.62Z"/><path class="cls-8" d="M32,46.63c0,1.48.84,2.68,1.86,2.67s1.83-1.21,1.83-2.7-.85-2.68-1.86-2.67S32,45.14,32,46.63Z"/><path class="cls-9" d="M33.15,45.77a.8.8,0,0,1-.8.8.8.8,0,0,1,0-1.6A.8.8,0,0,1,33.15,45.77Z"/><path class="cls-8" d="M55.25,46.63c0,1.48-.84,2.68-1.86,2.67s-1.84-1.21-1.83-2.7.84-2.68,1.86-2.67S55.26,45.14,55.25,46.63Z"/><path class="cls-9" d="M54.14,45.77a.79.79,0,0,0,.79.8.8.8,0,1,0,0-1.6A.79.79,0,0,0,54.14,45.77Z"/><path class="cls-10" d="M47.11,61.65a4,4,0,0,1-1.43,1.16,5.45,5.45,0,0,1-.87.35,5.92,5.92,0,0,1-1,.19,5,5,0,0,1-2-.14,6.2,6.2,0,0,1-.94-.34,9.17,9.17,0,0,1-.86-.5L39.47,62l.17-.75c.36-1.57.78-3.14,1.27-4.69.11-.39.25-.77.38-1.16s.26-.77.42-1.15c.29-.77.59-1.53,1-2.28,0,.83,0,1.65,0,2.47,0,.41-.06.82-.09,1.22s-.05.82-.11,1.22c-.16,1.62-.4,3.22-.7,4.81l-.46-1.12c.21.11.4.24.61.33a6,6,0,0,0,.63.27c.21.09.43.13.65.21s.46.12.7.15a4.54,4.54,0,0,0,.74.1c.25,0,.52,0,.78,0s.55,0,.83,0Z"/><path class="cls-11" d="M37.74,41.15a1.3,1.3,0,0,1-1.46,1,14.2,14.2,0,0,0-7.45.62A1.33,1.33,0,0,1,27.24,42h0a1.18,1.18,0,0,1,.65-1.66,16.78,16.78,0,0,1,8.77-.78,1.31,1.31,0,0,1,1.08,1.56Z"/><path class="cls-11" d="M48.84,41.15a1.3,1.3,0,0,0,1.46,1,14.2,14.2,0,0,1,7.45.62A1.33,1.33,0,0,0,59.34,42h0a1.18,1.18,0,0,0-.65-1.66,16.78,16.78,0,0,0-8.77-.78,1.31,1.31,0,0,0-1.08,1.56Z"/><path class="cls-11" d="M64.58,51.46c-.73-1.49-.23-3.89-.56-5.56-.41-2.08-1.34-3.91-2-6-1.47-4.94,2.21-11-2.66-14.63-2.37-1.76-8.08.2-14.21.61-7.66.51-11.42-4-14.76-2.37-2.33,1.14-2.57,1.74-3.36,3.8-.93,2.46-3,4.33-3.71,6.89-1.67,5.93.66,6.88-1.26,15.51,0,0,.23-1.52-1.82-2.57,0,0-1.89-.39-2.59,1,.49-1-.51-4.48-.58-5.59A42.89,42.89,0,0,1,17,34.43c.36-2.91.73-5.7.81-8.65A21.92,21.92,0,0,1,20,16.44a15.58,15.58,0,0,1,.93-1.58c1.61-2.44,3.91-2.66,5.05-5.38,1.52-3.67,1.75-6.19,5.63-7.61C37.78-.41,40.29-.5,44.85,1c2.83.94,4.94,2.55,7.89,3.13s6.09.26,8.73,1.53c5.32,2.54,7.74,9.2,8.76,14.44,1.18,6.05.1,9.18.1,15.38,0,2.68-.72,6.69-1.21,11.65-.1,1-2.51.32-3.55,1.49a12.63,12.63,0,0,0-1,3.11Z"/><path class="cls-12" d="M49.43,67.57s-8.64,2.34-11.58,0"/><path class="cls-13" d="M43.68,71.16a2,2,0,0,1-.8,0,.39.39,0,0,0,.44.42S43.64,71.59,43.68,71.16Z"/><path class="cls-12" d="M45.48,70a8.07,8.07,0,0,1-4.16,0"/></g></g></g></svg>