<svg xmlns="http://www.w3.org/2000/svg" viewBox="0 0 86.99 116.01"><defs><style>.cls-1{isolation:isolate;}.cls-2{fill:#7fbdcf;}.cls-3{fill:#f5be94;}.cls-4{fill:#f8e4df;}.cls-15,.cls-4{mix-blend-mode:multiply;}.cls-5{fill:#f1f9f9;}.cls-6{fill:#13204e;}.cls-7{fill:#f3ab82;}.cls-8{fill:#e29361;}.cls-9{fill:#362010;}.cls-10{fill:#fff;}.cls-11{fill:#eda780;}.cls-12{fill:none;stroke:#ec9e86;stroke-linecap:round;stroke-linejoin:round;}.cls-13{fill:#182e68;}.cls-14,.cls-15{fill:#e74645;}.cls-16{fill:#cde8ea;}</style></defs><title>Persona4</title><g class="cls-1"><g id="Capa_2" data-name="Capa 2"><g id="Capa_1-2" data-name="Capa 1"><rect class="cls-2" x="32.27" y="85.05" width="22.43" height="8.26"/><path class="cls-3" d="M52.49,75.36H34.27s.46,11.51-1.77,14.85h22C52.26,86.87,52.49,75.36,52.49,75.36Z"/><path class="cls-4" d="M34,84.05a19.38,19.38,0,0,0,9.6,2.55,22.78,22.78,0,0,0,9.3-2.08,74.86,74.86,0,0,1-.45-9.16H34.27A73.26,73.26,0,0,1,34,84.05Z"/><path class="cls-3" d="M78.7,98.18,52.25,88.71H34.71L8.27,98.18S-1,101.23.09,116H86.88C88.14,100.32,78.7,98.18,78.7,98.18Z"/><path class="cls-5" d="M78.7,98.18,57.09,90.44,43.5,99.91l-13.28-9.6L8.27,98.18S-1,101.23.09,116H86.88C88.14,100.32,78.7,98.18,78.7,98.18Z"/><path class="cls-6" d="M30.22,90.31,8.27,98.18S-1,101.23.09,116h35Z"/><path class="cls-6" d="M78.7,98.18,57.09,90.44,52.62,116H86.88C88.14,100.32,78.7,98.18,78.7,98.18Z"/><path class="cls-3" d="M63.45,52.75c-.63,3.88.46,7.34,2.43,7.71S70,58,70.58,54.1s-.46-7.33-2.43-7.71S64.08,48.87,63.45,52.75Z"/><path class="cls-7" d="M65.82,51.7s0-.22.11-.57a6.93,6.93,0,0,1,.47-1.4c.25-.52.65-1.11,1.15-1.15a1.31,1.31,0,0,1,.38.06l.19.1s.09,0,.14.11a2,2,0,0,1,.47.85A4.88,4.88,0,0,1,69,50.8a5.29,5.29,0,0,1,0,1.12c-.06.39-.08.79-.15,1.12s-.13.68-.19,1-.14.58-.2.83-.13.47-.17.64c-.1.36-.15.57-.15.57s.1-.18.26-.5.19-.36.29-.6.21-.51.32-.8.2-.65.31-1,.16-.73.24-1.13a5.72,5.72,0,0,0-.21-2.64,2.76,2.76,0,0,0-.68-1.14,1.42,1.42,0,0,0-.28-.2,1.69,1.69,0,0,0-.27-.11,1.52,1.52,0,0,0-.6,0,1.59,1.59,0,0,0-1,.68,3.5,3.5,0,0,0-.47,1,6.16,6.16,0,0,0-.26,1.56A3.38,3.38,0,0,0,65.82,51.7Z"/><path class="cls-7" d="M65.82,51.7s-.18-.41,1.12-.51c0,0,1.44.27.59,2.2a6.61,6.61,0,0,0-.43,1.3c-.13.65.1,1.53-.25,2.11a.92.92,0,0,1-1.65-.53A4.76,4.76,0,0,1,66.12,54,1.74,1.74,0,0,0,65.82,51.7Z"/><path class="cls-7" d="M65.2,56.18a.92.92,0,0,0-.11.11,1.29,1.29,0,0,0-.19.36,1.06,1.06,0,0,0-.06.28,1.12,1.12,0,0,0,0,.32c0,.11,0,.23,0,.34a3.19,3.19,0,0,0,.11.33,1.13,1.13,0,0,0,.15.29,2.11,2.11,0,0,0,.19.23.82.82,0,0,0,.39.28,1.28,1.28,0,0,0,.45.11,3,3,0,0,0-.21-.47,1.14,1.14,0,0,0-.1-.19,2,2,0,0,0-.1-.21,1.24,1.24,0,0,0-.1-.2,1,1,0,0,1-.09-.22,2.35,2.35,0,0,1-.15-.42c0-.08,0-.15-.06-.22s0-.14,0-.21A3.27,3.27,0,0,1,65.2,56.18Z"/><path class="cls-3" d="M23.83,52.75c.63,3.88-.46,7.34-2.43,7.71S17.33,58,16.71,54.1s.46-7.33,2.43-7.71S23.21,48.87,23.83,52.75Z"/><path class="cls-7" d="M21.47,51.7s0-.22-.11-.57a7.62,7.62,0,0,0-.47-1.4c-.25-.52-.65-1.11-1.15-1.15a1.31,1.31,0,0,0-.38.06l-.19.1s-.09,0-.14.11a2,2,0,0,0-.47.85,4.89,4.89,0,0,0-.24,1.1,6,6,0,0,0,0,1.12c.06.39.08.79.15,1.12s.13.68.19,1,.14.58.19.83.13.47.18.64c.1.36.15.57.15.57s-.1-.18-.26-.5-.19-.36-.29-.6-.21-.51-.32-.8-.21-.65-.31-1-.16-.73-.24-1.13a4.93,4.93,0,0,1-.05-1.33A5.94,5.94,0,0,1,18,49.37a2.68,2.68,0,0,1,.69-1.14,1.18,1.18,0,0,1,.28-.2,1.69,1.69,0,0,1,.27-.11,1.46,1.46,0,0,1,.59,0,1.59,1.59,0,0,1,1,.68,3.8,3.8,0,0,1,.47,1,6.16,6.16,0,0,1,.26,1.56A3.38,3.38,0,0,1,21.47,51.7Z"/><path class="cls-7" d="M21.47,51.7s.18-.41-1.12-.51c0,0-1.45.27-.6,2.2a6,6,0,0,1,.44,1.3c.13.65-.1,1.53.24,2.11.45.74,1.59.32,1.66-.53A4.86,4.86,0,0,0,21.17,54,1.74,1.74,0,0,1,21.47,51.7Z"/><path class="cls-7" d="M22.09,56.18a.6.6,0,0,1,.1.11,1.29,1.29,0,0,1,.19.36,1,1,0,0,1,.07.28.85.85,0,0,1,0,.32c0,.11,0,.23,0,.34a3.18,3.18,0,0,1-.1.33,1.57,1.57,0,0,1-.15.29c-.06.09-.13.15-.19.23a.84.84,0,0,1-.4.28,1.21,1.21,0,0,1-.44.11,2.51,2.51,0,0,1,.2-.47,1.18,1.18,0,0,1,.11-.19l.09-.21c0-.07.07-.14.11-.2a1,1,0,0,0,.08-.22,2.41,2.41,0,0,0,.16-.42c0-.08,0-.15.06-.22a1.55,1.55,0,0,0,0-.21A4.28,4.28,0,0,0,22.09,56.18Z"/><path class="cls-3" d="M43.88,10.85h-.62C27.6,11,18.81,15.44,21.21,44l2.7,22.74a9.45,9.45,0,0,0,5,6.62l8.51,6.31s4,1.79,6.14,1.62c2.09.17,6.13-1.62,6.13-1.62l8.5-6.31a9.46,9.46,0,0,0,5-6.63l2.84-22.2C68.48,16,59.54,11,43.88,10.85Z"/><path class="cls-8" d="M62.29,52.75c-.56,2.42-.94,6.29-2.51,8.37a6,6,0,0,1-4.57,2.34,16.26,16.26,0,0,1-3.75-.26,20,20,0,0,0-2.85-.67,5.26,5.26,0,0,0-2.81.87,4.13,4.13,0,0,1-3.52.18,16.06,16.06,0,0,0-5.46-1.19c-2.16.08-4.63.65-6.75,0s-3.44-2.66-4.32-4.73c-.48-1.12-.82-3.75-1.16-4.91-.42-1.44-1.08-.45-2.39-.47l1.71,14.44a9.45,9.45,0,0,0,5,6.62l8.51,6.31s4,1.79,6.14,1.62c2.09.17,6.13-1.62,6.13-1.62l8.5-6.31a9.46,9.46,0,0,0,5-6.63L65.12,52C63.64,52,62.68,51.06,62.29,52.75Z"/><path class="cls-9" d="M32,45.85c0,1.48.84,2.68,1.86,2.67s1.83-1.21,1.82-2.69-.84-2.69-1.85-2.68S32,44.37,32,45.85Z"/><path class="cls-10" d="M33.15,45a.8.8,0,0,1-.8.8.8.8,0,0,1,0-1.6A.8.8,0,0,1,33.15,45Z"/><path class="cls-9" d="M55.25,45.85c0,1.48-.84,2.68-1.86,2.67s-1.84-1.21-1.83-2.69.84-2.69,1.86-2.68S55.26,44.37,55.25,45.85Z"/><path class="cls-10" d="M54.14,45a.8.8,0,1,0,1.59,0,.8.8,0,1,0-1.59,0Z"/><path class="cls-11" d="M46.35,60.29a5.37,5.37,0,0,1-1.48,1,6,6,0,0,1-1.77.48,7.47,7.47,0,0,1-1,0,6.22,6.22,0,0,1-.95-.14,5.32,5.32,0,0,1-.94-.28,7.16,7.16,0,0,1-.88-.43L39,60.76l-.08-.62c0-.28-.06-.52-.07-.77s0-.5,0-.75a8.11,8.11,0,0,1,.2-1.48,6.48,6.48,0,0,1,.5-1.44,5,5,0,0,1,.87-1.34,7.24,7.24,0,0,1,.42,1.52A10.13,10.13,0,0,1,41,57.31c0,.47,0,.94,0,1.4l0,.69c0,.23,0,.47-.07.68l-.45-.81c.2.12.38.29.59.4a4.78,4.78,0,0,0,.64.32,6.85,6.85,0,0,0,.68.26c.24,0,.48.13.73.16a4.9,4.9,0,0,0,.77.08,7.09,7.09,0,0,0,.8,0A9.79,9.79,0,0,0,46.35,60.29Z"/><path class="cls-8" d="M37.74,40.38a1.28,1.28,0,0,1-1.46,1,14.1,14.1,0,0,0-7.45.63,1.34,1.34,0,0,1-1.59-.73h0a1.19,1.19,0,0,1,.65-1.67,16.68,16.68,0,0,1,8.77-.77,1.3,1.3,0,0,1,1.08,1.56Z"/><path class="cls-8" d="M48.84,40.38a1.28,1.28,0,0,0,1.46,1,14.1,14.1,0,0,1,7.45.63,1.34,1.34,0,0,0,1.59-.73h0a1.19,1.19,0,0,0-.65-1.67,16.68,16.68,0,0,0-8.77-.77,1.3,1.3,0,0,0-1.08,1.56Z"/><path class="cls-12" d="M44.42,70.31a4.92,4.92,0,0,1-2.21,0"/><path class="cls-10" d="M38.35,65.75l1.28,2.52s5.72,3.21,9.75-2.39A99.85,99.85,0,0,1,38.35,65.75Z"/><path class="cls-8" d="M66.42,12c1.84-8-7.88-9.2-7.88-9.2A75.54,75.54,0,0,1,41,.5C21.19-2.29,18.92,7.56,18.92,7.56c-2.42,7.05-2.14,11.38-2.14,11.38l2.36,27.45s2-.33,2.68,2.72l.49,3.61,2.28,0C24,41.43,24,32.18,24,32.18c.18-3.33,0-8.15,5.07-8.73a76,76,0,0,0,7.65,1,64.05,64.05,0,0,0,14.65-.37c3.14-.38,8.56-1.61,10.78,1.4,1.55,2.12,1.51,5.56,1.58,8.06,0,1.38-.09,2.71-.17,4.07,0,0-1.28,15.1-1.28,15.1H65c.44-6.91,4-5.92,4-5.92,2.06-15.52,4.24-25.63,4.24-25.63s.76-8.56-6.87-9.18"/><path class="cls-8" d="M67.21,8.26s2.24,2-.79,4.5l2.57,3s2.73-3.94,4.71-2.32c0,0-.64-2.3-3.57-1.62C70.13,11.86,71.31,8.52,67.21,8.26Z"/><polygon class="cls-13" points="30.22 90.31 35.07 116.01 29.8 116.01 18.51 94.51 30.22 90.31"/><polygon class="cls-13" points="57.09 90.44 52.62 116.01 57.54 116.01 67.33 94.11 57.09 90.44"/><polygon class="cls-2" points="43.49 99.87 41.71 90.76 32.27 85.05 30.9 90.8 43.49 99.87"/><polygon class="cls-2" points="43.49 99.87 45.27 90.76 54.71 85.05 56.08 90.8 43.49 99.87"/><path class="cls-14" d="M48,92H39a2.75,2.75,0,0,0-1.15,3.34l2.87,4.54h5.58l2.86-4.54A2.75,2.75,0,0,0,48,92Z"/><path class="cls-15" d="M48.62,92.52a5,5,0,0,1-.19,2.68,5.21,5.21,0,0,1-4,3.69,3.47,3.47,0,0,1-4.12-2.29c-.47-1.6-.74-3.41.29-4.61H39a2.75,2.75,0,0,0-1.15,3.34l2.87,4.54h5.58l2.86-4.54A2.54,2.54,0,0,0,48.62,92.52Z"/><polygon class="cls-14" points="40.7 99.87 37.62 116.01 49.38 116.01 46.28 99.87 40.7 99.87"/><polygon class="cls-16" points="41.71 90.76 37.25 98.93 26.34 91.52 32.27 85.05 41.71 90.76"/><polygon class="cls-16" points="45.27 90.76 49.73 98.93 60.64 91.52 54.71 85.05 45.27 90.76"/></g></g></g></svg>