<svg xmlns="http://www.w3.org/2000/svg" viewBox="0 0 348 286.75"><defs><style>.cls-1{fill:#eb5f0a;}</style></defs><title>Twitter</title><g id="Capa_2" data-name="Capa 2"><g id="Capa_1-2" data-name="Capa 1"><path class="cls-1" d="M0,252.41v-6c2.87-3.77,6.87-3.47,10.94-3.09A130.83,130.83,0,0,0,77.15,232c4.3-1.92,8.92-3.52,12.37-7-.38-.49-.53-.85-.79-1-.76-.33-1.57-.55-2.36-.82-22.86-7.72-38.7-22.86-47.58-45.26-3.09-7.79-1-11,7.64-11.68A79.92,79.92,0,0,1,24.86,144a76.79,76.79,0,0,1-11.95-38.18c-.41-8.08,4-10.85,11.49-7.41,1.32.61,2.66,1.16,5,2.18-1.58-2.4-2.59-3.84-3.51-5.34-15.54-25.23-16.68-51.05-3-77.39,2.95-5.69,7.07-6.26,11.55-1.77,2.35,2.35,4.38,5,6.64,7.46,31.24,33.63,69.66,53.53,115,60.16,6.7,1,7.41.28,7.48-6.51C164,45,178.39,21,207.57,7.46c27.61-12.78,54.3-8.91,78.38,9.83,4.22,3.28,7.87,4.06,12.74,2.47,9.85-3.21,19.46-6.89,28.47-12,3.13-1.79,6.36-3.4,9.71-.64s2.1,6.19.93,9.6c-2.64,7.68-7.1,14.37-12.26,22.09l13.32-4.95c3.69-1.38,6.88-1,9.14,2.6v6c-9.44,12.31-19.24,24.29-31.72,33.74-2,1.49-1.94,3.72-1.94,5.92a203,203,0,0,1-19.83,88.46c-22,46.37-55.72,81.15-103.62,100.64C141.85,291.12,92,291.73,42.05,274,27.13,268.74,12.76,262.05,0,252.41Z"/></g></g></svg>