<svg xmlns="http://www.w3.org/2000/svg" viewBox="0 0 350.17 341.59"><defs><style>.cls-1{fill:#eb5f0a;}</style></defs><title>github</title><g id="Capa_2" data-name="Capa 2"><g id="Capa_1-2" data-name="Capa 1"><path class="cls-1" d="M350.17,184.38c-.63,5.41-1.18,10.83-1.9,16.23a164.67,164.67,0,0,1-24.08,66.21c-14.25,22.69-32.4,41.65-55.11,56.08a173.32,173.32,0,0,1-37.85,17.94c-7.37,2.48-12.48-1.35-12.51-9.11-.08-15.27,0-30.55-.05-45.82,0-9.3-1-18.43-6-26.64a42.52,42.52,0,0,0-5.66-7c7.33-1.09,14.19-1.89,20.85-3.65,17.82-4.7,33.81-12.49,44.69-28.08,8-11.46,11.66-24.62,13.27-38.34,1.25-10.66,1.61-21.35-.64-32a62.67,62.67,0,0,0-14-28.49,5.59,5.59,0,0,1-1.24-6.29c4.7-14.2,2.68-28.08-2.44-41.75-.52-1.4-1.51-1.52-2.65-1.67-6.22-.81-11.9,1.23-17.55,3.38a131,131,0,0,0-26,13.49,5.84,5.84,0,0,1-5.12.86,161.25,161.25,0,0,0-82.08,0,6.2,6.2,0,0,1-5.41-1.07A118.84,118.84,0,0,0,93.09,72.57c-.22-.06-.44-.14-.66-.19-8-1.64-9.5-.72-11.79,7.05C77,92,76.21,104.5,80.8,117a3.14,3.14,0,0,1-.82,3.62c-14.53,16.3-17.92,35.78-16.12,56.74a100.5,100.5,0,0,0,9.72,36.38c7.86,15.86,21.33,25.09,37.22,31.41,10.13,4,20.84,5.58,31.66,7-.06.38,0,.78-.18,1a37,37,0,0,0-9.78,20.27c-.17,1-.2,2.26-1.6,2.77-12.22,4.43-24.43,6.88-36.45-.46C89,272.39,85,267.57,81.78,262.09a38.83,38.83,0,0,0-21.69-17.78A18.31,18.31,0,0,0,49,243.77c-2.46.72-3.12,2-1.69,4.28a15,15,0,0,0,5.23,5.31c9.25,5.21,14.37,13.72,18.59,22.94,2.5,5.49,4.66,11.09,9.31,15.31,7.21,6.55,16,8.88,25.33,9.73,7.63.69,15.26.82,22.79-.75,2.6-.53,3,.39,3,2.72,0,9.23.2,18.46.24,27.69,0,8.57-5.47,12.43-13.6,9.58-49.47-17.35-84.1-50.78-104.9-98.43C1.27,214.59-2.1,185.4,1.19,155.5,6.1,110.83,25.73,73.58,59.08,43.84,86.78,19.15,119.35,4.66,156.51,1S228.85,4,261.45,22.59C293.15,40.64,316.93,66.24,333,99a167.28,167.28,0,0,1,16.62,61.93,23.22,23.22,0,0,0,.6,2.94Z"/></g></g></svg>