<svg xmlns="http://www.w3.org/2000/svg" viewBox="0 0 295.28 295.24"><defs><style>.cls-1{fill:#eb5f0a;}</style></defs><title>Instagram</title><g id="Capa_2" data-name="Capa 2"><g id="Capa_1-2" data-name="Capa 1"><path class="cls-1" d="M295.2,147.87c0,26.57.22,53.14-.08,79.71-.19,15.8-4.45,30.46-14.54,43.07-11.7,14.61-27.19,21.75-45.51,23.68a253.67,253.67,0,0,1-26.86.91q-65.76-.06-131.52-.21A124.88,124.88,0,0,1,51,292.61,63.37,63.37,0,0,1,1,236.74a188.43,188.43,0,0,1-1-19.87c0-49,0-98,.11-147,0-10.68,1.62-21.23,6-31.09C16.14,16.36,34,4.48,57.93,1A116.05,116.05,0,0,1,74.8,0c50.32.05,100.63,0,151,.13,11.2,0,22.17,1.92,32.41,6.8,21.26,10.13,32.62,27.41,36.1,50.33a110.79,110.79,0,0,1,1,16.88q-.06,36.87,0,73.73ZM149.89,256.11c13.06.24,29.48-.28,45.91-1,34.29-1.44,57.89-25.23,59.36-59.52,1.08-25.24,1.09-50.47.73-75.7-.14-9.59-.33-19.24-1.77-28.8-4-26.21-20.64-43.94-46.59-49.35-10.8-2.26-21.8-2.31-32.71-2.44-24.9-.3-49.8-.3-74.71.7C65.36,41.43,41.44,65.23,40,99.93c-1,24.9-1,49.8-.71,74.7.12,9.93.31,19.91,1.81,29.79,4.16,27.48,23.29,46.36,50.67,49.87C110,256.61,128.26,256.12,149.89,256.11Z"/><path class="cls-1" d="M146.65,57.91c17.77-.09,35.61-.76,53.21,1.73C223,62.93,235.31,77.53,236.45,101c1.2,24.9,1,49.8.77,74.71A169.77,169.77,0,0,1,235.7,199c-3.52,24-17.26,36.24-41.55,37.41q-46.29,2.22-92.59-.12c-10.55-.52-20.63-2.9-29-10.31-9.85-8.75-13-20.16-13.74-32.57-1.52-24.55-1-49.13-.83-73.7A167.22,167.22,0,0,1,59.6,95.38C63.18,72,77.25,59.78,100.85,58.81c7.63-.31,15.26-.72,22.89-.87S139,57.91,146.65,57.91Zm56.54,89.5C203,117,177.61,91.85,147.42,92.06c-30.39.2-55.6,25.58-55.38,55.77.22,30.4,25.62,55.62,55.78,55.38C178.24,203,203.42,177.58,203.19,147.41ZM206,77.05c-7.31-.13-12.49,5-12.59,12.36-.1,7.09,4.87,12.51,11.71,12.78A12.58,12.58,0,1,0,206,77.05Z"/><path class="cls-1" d="M184.45,147.43c.21,19.72-17.09,37.09-36.88,37S111,167.58,110.78,147.83s17.09-37.08,36.88-37S184.24,127.69,184.45,147.43Z"/></g></g></svg>